<svg id="Layer_3" data-name="Layer 3" xmlns="http://www.w3.org/2000/svg" viewBox="0 0 100.5 100.5"><defs><style>.cls-1{fill:none;}.cls-2{fill:#fdbf10;}.cls-3{fill:#fdbf11;}</style></defs><title>big-smile</title><rect class="cls-1" width="100.5" height="100.5"/><path class="cls-2" d="M133,1811.43a22,22,0,0,1,21.89-21.93,22.23,22.23,0,0,1,22,22.48h0a21.93,21.93,0,0,1-43.86-.56Zm21.93,19.11a19.15,19.15,0,0,0,19.11-18.6,19.13,19.13,0,1,0-38.26-.85,19.11,19.11,0,0,0,18.76,19.45Z" transform="translate(-133 -1789.5)"/><path class="cls-3" d="M142.06,1812.67h1.67c.26.81.51,1.67.81,2.44a9.76,9.76,0,0,0,5.56,5.73,13.84,13.84,0,0,0,6.28.81,11.73,11.73,0,0,0,4.28-1,9.82,9.82,0,0,0,4.66-5.47c.3-.73.51-1.54.77-2.31h1.75a11,11,0,0,1-.43,2.31,13.26,13.26,0,0,1-4,7.14,11.25,11.25,0,0,1-6.16,2.91,14.18,14.18,0,0,1-7.18-.82,11.83,11.83,0,0,1-7-7.09,19.17,19.17,0,0,1-1.07-4.28Z" transform="translate(-133 -1789.5)"/><path class="cls-2" d="M165.32,1804.51a3.51,3.51,0,1,1-7,.77,3.3,3.3,0,0,1,0-.77,3.46,3.46,0,0,1,3.5-3.43h.05a3.37,3.37,0,0,1,3.42,3.33Z" transform="translate(-133 -1789.5)"/><path class="cls-2" d="M148,1801a3.48,3.48,0,0,1,3.51,3.42v0A3.59,3.59,0,0,1,148,1808a3.5,3.5,0,0,1-3.5-3.5,3.42,3.42,0,0,1,3.37-3.47Z" transform="translate(-133 -1789.5)"/></svg>