<svg id="Layer_2" data-name="Layer 2" xmlns="http://www.w3.org/2000/svg" viewBox="0 0 710.11 534.55"><defs><style>.cls-1{fill:#fd6754;}.cls-2{fill:#fcb5b5;}.cls-3{fill:#ffe8d6;}.cls-4{fill:#ffd6b5;}.cls-5{fill:#ff971d;}.cls-6{fill:#393e46;}.cls-7{fill:#f5fdf9;}.cls-8{fill:#bdf2d5;}</style></defs><title>how-we-help-col-1-bg</title><path class="cls-1" d="M353.11,939.55c99.13,1.63,179,81.15,179,179s-79.86,177.39-179,179Z" transform="translate(0.23 -939.55)"/><path class="cls-2" d="M531.25,1117.11c2.46-97.2,81.23-175.43,178.64-177.06v177.06Z" transform="translate(0.23 -939.55)"/><path class="cls-3" d="M352.26,1473.6c2.46-97.21,81.23-175.44,178.64-177.07V1473.6Z" transform="translate(0.23 -939.55)"/><path class="cls-2" d="M180.41,1472.1C178,1374.89,99.18,1296.66,1.77,1295V1472.1Z" transform="translate(0.23 -939.55)"/><path class="cls-4" d="M709.39,1297c-2.47,97.2-81.23,175.43-178.64,177.07V1297Z" transform="translate(0.23 -939.55)"/><path class="cls-3" d="M354.4,1292.1c-2.46-97.2-81.23-175.43-178.64-177.06V1292.1Z" transform="translate(0.23 -939.55)"/><path class="cls-3" d="M178.41,1120.11C176,1022.91,97.18,944.68-.23,943.05v177.06Z" transform="translate(0.23 -939.55)"/><path class="cls-5" d="M178.41,1119.54C176,1216.74,97.18,1295-.23,1296.6V1119.54Z" transform="translate(0.23 -939.55)"/><circle class="cls-6" cx="264.84" cy="445.98" r="88.5"/><circle class="cls-7" cx="620.32" cy="267.49" r="81"/><path class="cls-8" d="M620.1,1133.54A73.5,73.5,0,1,1,546.6,1207a73.58,73.58,0,0,1,73.5-73.49m0-15A88.5,88.5,0,1,0,708.59,1207a88.49,88.49,0,0,0-88.49-88.49Z" transform="translate(0.23 -939.55)"/><path class="cls-8" d="M636.46,1237.48a15.52,15.52,0,1,1-31,0Z" transform="translate(0.23 -939.55)"/><rect class="cls-8" x="582.48" y="238.45" width="16.25" height="33.13"/><rect class="cls-8" x="642.85" y="238.83" width="16.13" height="33"/></svg>