<svg id="Layer_1" data-name="Layer 1" xmlns="http://www.w3.org/2000/svg" viewBox="0 0 38 37.82"><defs><style>.cls-1{fill:#fefcfb;}.cls-2{fill:#fc9922;}</style></defs><title>logo-icon</title><path class="cls-1" d="M23.57,19.27V5.78H37.06V19.27ZM28,13.54h4.64v.82L31.3,15.68l-.51,0v1.35a3.58,3.58,0,0,0,2.68-1,3.86,3.86,0,0,0,1.67-3.43,19.11,19.11,0,0,1,0-2c-1.07-2-2.43-3.51-4.88-3.48s-3.75,1.58-4.76,3.47a14,14,0,0,1,0,1.72,3.83,3.83,0,0,0,.83,2.83,4.3,4.3,0,0,0,3.83,1.88V16l-1.08-.43C28.64,15.07,27.88,14.58,28,13.54Z" transform="translate(-21.9 -1.4)"/><path class="cls-2" d="M28,13.54c-.11,1,.65,1.53,1.07,2l1.08.43v1.1a4.3,4.3,0,0,1-3.83-1.88,3.83,3.83,0,0,1-.83-2.83,14,14,0,0,0,0-1.72c1-1.89,2.32-3.44,4.76-3.47s3.81,1.48,4.88,3.48a19.11,19.11,0,0,0,0,2,3.86,3.86,0,0,1-1.67,3.43,3.58,3.58,0,0,1-2.68,1V15.71l.51,0,1.33-1.32v-.82Zm1.63-1.18a7,7,0,0,1,0-.8c.08-.68-.33-.59-.78-.49v1.29Zm2.13,0V11.06H31l.06,1.33Z" transform="translate(-21.9 -1.4)"/><path class="cls-1" d="M29.62,12.36h-.77V11.07c.45-.1.86-.19.78.49A7,7,0,0,0,29.62,12.36Z" transform="translate(-21.9 -1.4)"/><path class="cls-1" d="M31.75,12.39h-.7L31,11.06h.76Z" transform="translate(-21.9 -1.4)"/><path class="cls-2" d="M40.9,1.4A19,19,0,0,0,39,39.23V34.37a9.15,9.15,0,0,1-7.49-9H49.93a9.19,9.19,0,0,1-7.18,9v4.86A18.95,18.95,0,0,0,40.9,1.4ZM39,21.34H35.29V15.58H39Zm7.47,0H42.76V15.58H46.5Z" transform="translate(-21.9 -1.4)"/></svg>