<svg xmlns="http://www.w3.org/2000/svg" viewBox="0 0 419.98 571.47"><defs><style>.cls-1{fill:#f9f6f7;}.cls-2{fill:#f5fdf9;}.cls-3{fill:#bdf2d5;}</style></defs><title>Asset 6</title><g id="Layer_2" data-name="Layer 2"><g id="Layer_2-2" data-name="Layer 2"><path class="cls-1" d="M420,0h0a0,0,0,0,1,0,0V571.47a0,0,0,0,1,0,0H0a0,0,0,0,1,0,0V420A420,420,0,0,1,420,0Z"/><circle class="cls-2" cx="55.76" cy="54.75" r="49.25"/><path class="cls-3" d="M55.76,10A44.75,44.75,0,1,1,11,54.75,44.8,44.8,0,0,1,55.76,10m0-9a53.75,53.75,0,1,0,53.75,53.75A53.74,53.74,0,0,0,55.76,1Z"/><path class="cls-3" d="M65.72,73H46.3c0,.24,0,.49,0,.75a9.75,9.75,0,0,0,19.5,0c0-.26,0-.51,0-.75Z"/><polygon class="cls-3" points="42.26 37.5 32.26 37.5 32.26 57 42.26 57 42.26 37.5 42.26 37.5"/><polygon class="cls-3" points="79.26 37.5 69.26 37.5 69.26 57 79.26 57 79.26 37.5 79.26 37.5"/></g></g></svg>