<svg xmlns="http://www.w3.org/2000/svg" viewBox="0 0 20 20"><defs><style>.cls-1{fill:none;}.cls-2{fill:#fdbf10;}.cls-3{fill:#fdbf11;}</style></defs><title>Asset 3</title><g id="Layer_2" data-name="Layer 2"><g id="Layer_2-2" data-name="Layer 2"><rect class="cls-1" width="20" height="20"/><path class="cls-2" d="M0,5.13A5.14,5.14,0,0,1,5.12,0a5.2,5.2,0,0,1,5.14,5.26,5.19,5.19,0,0,1-5.28,5A5.14,5.14,0,0,1,0,5.13ZM5.13,9.6A4.48,4.48,0,0,0,9.6,5.25,4.54,4.54,0,0,0,5.15.65a4.55,4.55,0,0,0-4.5,4.4A4.47,4.47,0,0,0,5.13,9.6Z"/><path class="cls-3" d="M2.12,5.42h.39c.06.19.12.39.19.57A2.28,2.28,0,0,0,4,7.33a3.2,3.2,0,0,0,1.47.19,2.77,2.77,0,0,0,1-.24A2.3,2.3,0,0,0,7.56,6c.07-.17.12-.36.18-.54h.41c0,.18-.06.36-.1.54a3.1,3.1,0,0,1-.93,1.67,2.62,2.62,0,0,1-1.44.68A3.32,3.32,0,0,1,4,8.16,2.76,2.76,0,0,1,2.37,6.5a4.39,4.39,0,0,1-.25-1Z"/><path class="cls-2" d="M7.56,3.51a.82.82,0,1,1-1.63,0,.81.81,0,0,1,.83-.8A.79.79,0,0,1,7.56,3.51Z"/><path class="cls-2" d="M3.5,2.7a.81.81,0,0,1,.82.81.84.84,0,0,1-.82.82.82.82,0,0,1-.82-.82A.8.8,0,0,1,3.5,2.7Z"/></g></g></svg>